<svg width="32" height="32" viewBox="0 0 32 32" fill="none" xmlns="http://www.w3.org/2000/svg">
  <!-- Background circle -->
  <circle cx="16" cy="16" r="16" fill="#1976d2"/>
  
  <!-- Building/venue icon -->
  <rect x="8" y="12" width="16" height="12" fill="white" rx="1"/>
  
  <!-- Windows -->
  <rect x="10" y="14" width="2" height="2" fill="#1976d2"/>
  <rect x="13" y="14" width="2" height="2" fill="#1976d2"/>
  <rect x="16" y="14" width="2" height="2" fill="#1976d2"/>
  <rect x="19" y="14" width="2" height="2" fill="#1976d2"/>
  
  <rect x="10" y="17" width="2" height="2" fill="#1976d2"/>
  <rect x="13" y="17" width="2" height="2" fill="#1976d2"/>
  <rect x="16" y="17" width="2" height="2" fill="#1976d2"/>
  <rect x="19" y="17" width="2" height="2" fill="#1976d2"/>
  
  <rect x="10" y="20" width="2" height="2" fill="#1976d2"/>
  <rect x="13" y="20" width="2" height="2" fill="#1976d2"/>
  <rect x="16" y="20" width="2" height="2" fill="#1976d2"/>
  <rect x="19" y="20" width="2" height="2" fill="#1976d2"/>
  
  <!-- Door -->
  <rect x="14" y="20" width="4" height="4" fill="#1976d2" rx="0.5"/>
  
  <!-- Roof -->
  <path d="M6 12 L16 6 L26 12 L26 12.5 L6 12.5 Z" fill="white"/>
</svg>
